# xmcd
#
# Track frame offsets:
# 150
# 15955
# 34977
# 48840
# 66635
# 80607
# 97132
# 113702
# 131150
# 155022
# 193380
# 218495
# 238130
# 258800
# 273960
#
# Disc length: 4054 seconds
#
#
# Revision: 2
# Processed by: cddbd v1.5.2PL0 Copyright (c) Steve Scherf et al.
# Submitted via: FreeRIP 2.945 
#
DISCID=d80fd40f
DTITLE=Still Got The Blues - MUZIK.DE#01
DYEAR=1999
DGENRE=Blues
TTITLE0=Buddy Guy - Shame, Shame, Shame
TTITLE1=John Mayall - Wake Up Call
TTITLE2=Johnny Winter - Blue Mood
TTITLE3=Pops Staples - World In Motion
TTITLE4=Robert Ward - Fear No Evil
TTITLE5=Blue Lou and The Headhunters - Cork Up That Bottle
TTITLE6=Hi Tide Harris - Home At Last
TTITLE7=Roy Rogers - Your Mind Is On Vacation
TTITLE8=Brendan Croker - I Guess That Says It All
TTITLE9=Johnny Graham - Oh Say Can You See, The Red, The White And The Blues
TTITLE10=Johnny Diesel And The Injectors - Since I Fell For You
TTITLE11=Larry McCray - Frustrated Baby
TTITLE12=Buddy Guy - Feels Like Rain
TTITLE13=Terry Evans - Too Many Cooks
TTITLE14=Walter Trout Band - I Can Tell
EXTD=
EXTT0=
EXTT1=
EXTT2=
EXTT3=
EXTT4=
EXTT5=
EXTT6=
EXTT7=
EXTT8=
EXTT9=
EXTT10=
EXTT11=
EXTT12=
EXTT13=
EXTT14=
PLAYORDER=
